<svg width="70" height="102" viewBox="0 0 70 102" fill="none" xmlns="http://www.w3.org/2000/svg">
<path d="M25.8901 26.0923C26.5174 24.5136 28.7519 24.5136 29.3793 26.0923L50.5455 79.355C51.0353 80.5875 50.1272 81.9256 48.8009 81.9256H6.46847C5.14215 81.9256 4.23407 80.5875 4.72388 79.355L25.8901 26.0923Z" fill="black"/>
<path d="M29.3793 17.312C28.7519 18.8907 26.5174 18.8907 25.8901 17.312L22.188 7.99614C21.6982 6.76358 22.6063 5.42555 23.9326 5.42555L31.3368 5.42555C32.6631 5.42555 33.5712 6.76358 33.0813 7.99614L29.3793 17.312Z" fill="black"/>
<path d="M40.0808 26.0922C40.7081 24.5135 42.9426 24.5135 43.5699 26.0922L64.7361 79.3549C65.226 80.5875 64.3179 81.9255 62.9916 81.9255L20.6592 81.9255C19.3328 81.9255 18.4247 80.5875 18.9146 79.3549L40.0808 26.0922Z" fill="black"/>
<path d="M40.0807 55.3901C40.708 53.8114 42.9425 53.8114 43.5699 55.3901L47.2719 64.706C47.7618 65.9386 46.8537 67.2766 45.5273 67.2766H38.1232C36.7969 67.2766 35.8888 65.9386 36.3786 64.706L40.0807 55.3901Z" fill="white"/>
<path d="M43.57 17.312C42.9426 18.8907 40.7081 18.8907 40.0808 17.312L36.3787 7.99613C35.8889 6.76357 36.797 5.42554 38.1233 5.42554L45.5274 5.42554C46.8537 5.42554 47.7618 6.76356 47.272 7.99613L43.57 17.312Z" fill="black"/>
<path d="M25.89 55.3901C26.5174 53.8114 28.7518 53.8114 29.3792 55.3901L33.0813 64.706C33.5711 65.9386 32.663 67.2766 31.3367 67.2766L23.9325 67.2766C22.6062 67.2766 21.6981 65.9386 22.1879 64.706L25.89 55.3901Z" fill="white"/>
</svg>
